# xmcd CD database file
#
# Track frame offsets:
#	150
#	11605
#	22895
#	33190
#	42917
#	52887
#	63472
#	73982
#	84987
#	96362
#	105980
#	115915
#	130100
#	143140
#	162842
#	173697
#
# Disc length: 2435 seconds
#
# Revision: 2
# Processed by: cddbd v1.5.1PL0 Copyright (c) Steve Scherf et al.
# Submitted via: CDex 1.51
#
DISCID=c7098110
DTITLE=Marty Robbins - Greatest Hits
DYEAR=1989
DGENRE=Country
TTITLE0=The Story Of My Life
TTITLE1=A White Sport Coat (And A Pink Carnation)
TTITLE2=Ain't The Lucky One
TTITLE3=Just Married
TTITLE4=Stairway Of Love
TTITLE5=Please Don't Blame Me
TTITLE6=Grown Up Tears
TTITLE7=Singing The Blues
TTITLE8=Long Gone Lonesome Blues
TTITLE9=Long Tall Sally
TTITLE10=Knee Deep In The Blues
TTITLE11=Cool Water
TTITLE12=Devil Woman
TTITLE13=El Paso
TTITLE14=Sometimes I'm Tempted
TTITLE15=Ruby Ann
EXTD=YEAR: 1989
EXTT0=
EXTT1=
EXTT2=
EXTT3=
EXTT4=
EXTT5=
EXTT6=
EXTT7=
EXTT8=
EXTT9=
EXTT10=
EXTT11=
EXTT12=
EXTT13=
EXTT14=
EXTT15=
PLAYORDER=
